#N canvas 125 365 450 300 10;
#X obj 87 165 outlet;
#X obj 87 76 int;
#X obj 132 76 +;
#X msg 86 30 1;
#X msg 155 31 0;
#X obj 86 8 inlet;
#X obj 155 8 inlet;
#X obj 132 105 expr if ($i1 > $i2 \, 0 \, $i1);
#X obj 211 12 inlet;
#X connect 1 0 0 0;
#X connect 1 0 2 1;
#X connect 2 0 7 0;
#X connect 3 0 2 0;
#X connect 4 0 1 0;
#X connect 5 0 3 0;
#X connect 6 0 4 0;
#X connect 7 0 1 0;
#X connect 8 0 7 1;
