#N canvas 454 103 947 671 10;
#X obj 112 42 adc~;
#X obj 112 82 fiddle~ 1024 1 100 0;
#X floatatom 108 130 5 0 0 0 - - -, f 5;
#X obj 145 130 bng 15 250 50 0 empty empty empty 17 7 0 10 -262144
-1 -1;
#X obj 177 129 unpack;
#X floatatom 173 165 5 0 0 0 - - -, f 5;
#X floatatom 209 165 5 0 0 0 - - -, f 5;
#X floatatom 258 134 5 0 0 0 - - -, f 5;
#X connect 0 0 1 0;
#X connect 1 0 2 0;
#X connect 1 1 3 0;
#X connect 1 2 4 0;
#X connect 1 3 7 0;
#X connect 4 0 5 0;
#X connect 4 1 6 0;
