#N canvas 966 286 670 696 10;
#X obj 225 39 inlet;
#X obj 167 524 throw~ output;
#X obj 21 233 osc~;
#X obj 21 286 *~;
#X obj 21 88 vsl 15 128 140 14000 1 0 empty empty empty 0 -9 0 10 -262144
-1 -1 11850 1;
#X obj 54 88 vsl 15 128 140 14000 1 0 empty empty empty 0 -9 0 10 -262144
-1 -1 1000 1;
#X obj 54 233 phasor~;
#X obj 107 232 line;
#X msg 107 201 15000 0;
#X obj 21 319 vcf~;
#X obj 47 286 sig~;
#X msg 165 201 0 300;
#X obj 165 170 delay 1;
#X obj 88 87 vsl 15 128 1 20 1 0 empty empty empty 0 -9 0 10 -262144
-1 -1 4350 1;
#X obj 143 365 vsl 40 60 0 1 0 0 empty empty empty 0 -9 0 10 -262144
-1 -1 2050 1;
#X obj 128 439 *~;
#X obj 167 485 +~;
#X obj 337 122 noise~;
#X obj 247 365 vsl 40 60 0 1 0 0 empty empty empty 0 -9 0 10 -262144
-1 -1 1500 1;
#X obj 232 440 *~;
#X obj 222 249 vline~;
#X obj 240 295 *~;
#X msg 259 204 0 300;
#X msg 223 205 1 0;
#X obj 259 165 delay 1;
#X obj 415 18 vsl 15 128 140 14000 1 0 empty empty empty 0 -9 0 10
-262144 -1 -1 11400 1;
#X obj 337 174 bp~ 8000 20;
#X connect 0 0 8 0;
#X connect 0 0 12 0;
#X connect 0 0 23 0;
#X connect 0 0 24 0;
#X connect 2 0 3 0;
#X connect 3 0 9 0;
#X connect 4 0 2 0;
#X connect 5 0 6 0;
#X connect 6 0 3 1;
#X connect 7 0 10 0;
#X connect 8 0 7 0;
#X connect 9 0 15 0;
#X connect 10 0 9 1;
#X connect 11 0 7 0;
#X connect 12 0 11 0;
#X connect 13 0 9 2;
#X connect 14 0 15 1;
#X connect 15 0 16 0;
#X connect 16 0 1 0;
#X connect 17 0 26 0;
#X connect 18 0 19 1;
#X connect 19 0 16 1;
#X connect 20 0 21 0;
#X connect 21 0 19 0;
#X connect 22 0 20 0;
#X connect 23 0 20 0;
#X connect 24 0 22 0;
#X connect 25 0 26 1;
#X connect 26 0 21 1;
