#N canvas 350 183 937 781 10;
#X obj 306 46 inlet;
#X obj 208 511 throw~ output;
#X obj 104 287 *~;
#X obj 190 233 line;
#X msg 190 202 15000 0;
#X obj 130 287 sig~;
#X obj 248 171 delay 1;
#X obj 208 457 +~;
#X obj 320 278 noise~;
#X obj 305 250 vline~;
#X obj 305 335 *~;
#X msg 306 206 1 0;
#X obj 335 174 delay 1;
#X obj 387 78 hsl 128 15 50 400 0 0 empty empty Decay 5 5 0 10 -1 -262144
-262144 0 1;
#X obj 242 202 pack 0 \$1;
#X obj 335 206 pack 0 \$1;
#X obj 386 174 * 0.7;
#X floatatom 110 199 5 0 0 0 - - -, f 5;
#X floatatom 41 200 5 0 0 0 - - -, f 5;
#X obj 104 319 vcf~ 2;
#X obj 41 237 osc~ 14000;
#X obj 110 236 phasor~ 490;
#X obj 208 483 hip~ 1000;
#X obj 320 307 bp~ 9000 10;
#X msg 387 52 200;
#X obj 387 27 loadbang;
#X obj 364 125 *;
#X obj 242 418 *~ 0.2;
#X obj 180 420 *~ 0.1;
#X obj 387 97 hsl 128 15 4000 11000 1 0 empty empty Tone 5 5 0 10 -1
-262144 -262144 9781 1;
#X msg 420 53 9000;
#X obj 104 362 lop~ 7000;
#X connect 0 0 4 0;
#X connect 0 0 6 0;
#X connect 0 0 11 0;
#X connect 0 0 12 0;
#X connect 0 0 26 0;
#X connect 2 0 19 0;
#X connect 3 0 5 0;
#X connect 4 0 3 0;
#X connect 5 0 19 1;
#X connect 6 0 14 0;
#X connect 7 0 22 0;
#X connect 8 0 23 0;
#X connect 9 0 10 0;
#X connect 10 0 27 0;
#X connect 11 0 9 0;
#X connect 12 0 15 0;
#X connect 13 0 26 1;
#X connect 14 0 3 0;
#X connect 15 0 9 0;
#X connect 16 0 15 1;
#X connect 17 0 21 0;
#X connect 18 0 20 0;
#X connect 19 0 31 0;
#X connect 20 0 2 0;
#X connect 21 0 2 1;
#X connect 22 0 1 0;
#X connect 23 0 10 1;
#X connect 24 0 13 0;
#X connect 25 0 24 0;
#X connect 25 0 30 0;
#X connect 26 0 16 0;
#X connect 26 0 14 1;
#X connect 27 0 7 1;
#X connect 28 0 7 0;
#X connect 29 0 23 1;
#X connect 30 0 29 0;
#X connect 31 0 28 0;
#X coords 0 -1 1 1 135 36 2 386 77;
