#N canvas 1160 156 670 696 10;
#X obj 340 123 inlet;
#X obj 340 251 vline~;
#X obj 282 205 noise~;
#X obj 282 284 *~;
#X obj 303 306 loadbang;
#X obj 312 436 throw~ output;
#X msg 385 213 0 \$1;
#X obj 385 157 pipe 1;
#X msg 290 330 6500;
#X obj 282 370 bp~;
#X obj 521 228 vsl 15 128 0 50 0 0 empty empty Q 0 -9 0 10 -262144
-1 -1 10900 1;
#X obj 488 217 vsl 15 128 500 12000 0 0 empty empty Freq 0 -9 0 10
-262144 -1 -1 2450 1;
#X obj 385 186 * 300;
#X obj 290 157 expr sqrt($f1);
#X obj 219 369 bp~;
#X obj 250 403 +~;
#X obj 178 190 vsl 15 128 0 50 0 0 empty empty Q 0 -9 0 10 -262144
-1 -1 12700 1;
#X obj 145 199 vsl 15 128 500 15000 0 0 empty empty Freq 0 -9 0 10
-262144 -1 -1 5600 1;
#X msg 339 191 \$1 0;
#X connect 0 0 7 0;
#X connect 0 0 13 0;
#X connect 1 0 3 1;
#X connect 2 0 3 0;
#X connect 3 0 9 0;
#X connect 3 0 14 0;
#X connect 4 0 8 0;
#X connect 6 0 1 0;
#X connect 7 0 12 0;
#X connect 8 0 9 1;
#X connect 9 0 15 1;
#X connect 10 0 9 2;
#X connect 11 0 9 1;
#X connect 12 0 6 0;
#X connect 13 0 18 0;
#X connect 14 0 15 0;
#X connect 15 0 5 0;
#X connect 16 0 14 2;
#X connect 17 0 14 1;
#X connect 18 0 1 0;
