#N canvas 316 57 1120 804 10;
#X obj 347 49 inlet;
#X obj 346 253 vline~;
#X obj 229 310 *~;
#X obj 376 177 delay 1;
#X obj 428 81 hsl 128 15 80 500 1 0 empty empty Decay 5 5 0 10 -1 -262144
-262144 12700 1;
#X obj 406 209 pack 0 \$1;
#X msg 428 51 200;
#X obj 428 20 loadbang;
#X obj 405 128 *;
#X obj 428 100 hsl 128 15 10 400 1 0 empty empty Tone 5 5 0 10 -1 -262144
-262144 3550 1;
#X obj 63 137 * 2;
#X obj 90 137 * 3;
#X obj 117 137 * 4.16;
#X obj 162 137 * 5.43;
#X obj 207 137 * 6.79;
#X obj 252 137 * 8.21;
#X obj 19 175 square;
#X obj 63 175 square;
#X obj 107 175 square;
#X obj 151 175 square;
#X obj 195 175 square;
#X obj 239 175 square;
#X obj 283 175 square;
#X obj 19 213 expr~ $v1 + $v2 + $v3 + $v4 + $v5 + $v6 + $v7;
#X obj 229 345 bp~ 12000 10;
#X obj 229 380 hip~ 9000;
#X obj 229 415 hip~ 9000;
#X msg 461 52 50;
#X obj 229 450 outlet~;
#X obj 18 66 t f;
#X obj 19 175 square;
#X obj 63 175 square;
#X obj 107 175 square;
#X obj 151 175 square;
#X obj 195 175 square;
#X obj 239 175 square;
#X obj 283 175 square;
#X msg 347 209 0.5 1;
#X connect 0 0 37 0;
#X connect 0 0 3 0;
#X connect 0 0 8 0;
#X connect 1 0 2 1;
#X connect 2 0 24 0;
#X connect 3 0 5 0;
#X connect 4 0 8 1;
#X connect 5 0 1 0;
#X connect 6 0 4 0;
#X connect 7 0 6 0;
#X connect 7 0 27 0;
#X connect 8 0 5 1;
#X connect 9 0 29 0;
#X connect 10 0 17 0;
#X connect 11 0 18 0;
#X connect 12 0 19 0;
#X connect 13 0 20 0;
#X connect 14 0 21 0;
#X connect 15 0 22 0;
#X connect 16 0 23 0;
#X connect 17 0 23 1;
#X connect 18 0 23 2;
#X connect 19 0 23 3;
#X connect 20 0 23 4;
#X connect 21 0 23 5;
#X connect 22 0 23 6;
#X connect 23 0 2 0;
#X connect 24 0 25 0;
#X connect 25 0 26 0;
#X connect 26 0 28 0;
#X connect 27 0 9 0;
#X connect 29 0 16 0;
#X connect 29 0 15 0;
#X connect 29 0 14 0;
#X connect 29 0 13 0;
#X connect 29 0 12 0;
#X connect 29 0 11 0;
#X connect 29 0 10 0;
#X connect 37 0 1 0;
#X coords 0 -1 1 1 135 36 2 427 80;
