#N canvas 285 133 670 696 10;
#X obj 107 123 inlet;
#X obj 312 436 throw~ output;
#X obj 21 233 osc~;
#X obj 21 286 *~;
#X obj 21 88 vsl 15 128 140 14000 1 0 empty empty empty 0 -9 0 10 -262144
-1 -1 10850 1;
#X obj 54 88 vsl 15 128 140 14000 1 0 empty empty empty 0 -9 0 10 -262144
-1 -1 1750 1;
#X obj 54 233 phasor~;
#X obj 107 232 line;
#X msg 107 201 15000 0;
#X obj 21 319 vcf~;
#X obj 47 286 sig~;
#X msg 165 201 0 300;
#X obj 165 170 delay 1;
#X obj 88 87 vsl 15 128 1 20 0 0 empty empty empty 0 -9 0 10 -262144
-1 -1 0 1;
#X connect 0 0 8 0;
#X connect 0 0 12 0;
#X connect 2 0 3 0;
#X connect 3 0 9 0;
#X connect 4 0 2 0;
#X connect 5 0 6 0;
#X connect 6 0 3 1;
#X connect 7 0 10 0;
#X connect 8 0 7 0;
#X connect 9 0 1 0;
#X connect 10 0 9 1;
#X connect 11 0 7 0;
#X connect 12 0 11 0;
#X connect 13 0 9 2;
