#N canvas 31 103 1183 706 10;
#X obj 438 59 cnv 15 633 305 empty empty Sequencer 10 10 0 14 -233017
-66577 0;
#X obj 179 287 tgl 28 0 empty empty Play 0 -15 0 10 -262144 -1 -1 0
1;
#X obj 518 577 output~;
#X floatatom 133 323 7 50 200 0 - - -, f 7;
#X obj 450 87 sequencer;
#X obj 450 160 sequencer;
#X obj 90 182 vsl 15 128 0 1 0 0 empty empty Swing 0 -9 0 10 -262144
-1 -1 1700 1;
#X obj 133 183 vsl 15 128 40 200 0 0 tempo empty BPM 0 -9 0 10 -262144
-1 -1 6350 1;
#X obj 450 131 hihat;
#X obj 518 542 catch~ output;
#X obj 133 62 loadbang;
#X obj 451 241 sequencer;
#N canvas 390 291 767 735 kick 0;
#X obj 41 11 inlet;
#X obj 168 309 osc~;
#X obj 168 279 vline~;
#X obj 153 372 throw~ output;
#X obj 44 282 vline~;
#X obj 153 340 *~;
#X obj 82 221 delay 10, f 10;
#X obj 246 110 vsl 17 22 0.25 1 0 0 empty empty Tone 0 -9 0 10 -262144
-1 -1 820 1;
#X text 91 204 comment;
#X obj 220 225 pipe 10;
#X msg 220 250 \$1 130;
#X msg 168 244 \$1 0;
#X obj 80 71 delay 1;
#X obj 220 197 * 100;
#X obj 41 45 t b b b;
#X msg 82 246 0 300;
#X obj 168 222 *;
#X msg 44 246 1 2;
#X obj 183 197 * 200;
#X obj 245 31 loadbang;
#X msg 245 54 0.4;
#X connect 0 0 14 0;
#X connect 0 0 16 0;
#X connect 1 0 5 1;
#X connect 2 0 1 0;
#X connect 4 0 5 0;
#X connect 5 0 3 0;
#X connect 6 0 15 0;
#X connect 7 0 13 0;
#X connect 7 0 18 0;
#X connect 9 0 10 0;
#X connect 10 0 2 0;
#X connect 11 0 2 0;
#X connect 12 0 7 0;
#X connect 13 0 9 0;
#X connect 14 0 17 0;
#X connect 14 1 6 0;
#X connect 14 2 12 0;
#X connect 15 0 4 0;
#X connect 16 0 11 0;
#X connect 17 0 4 0;
#X connect 18 0 16 1;
#X connect 19 0 20 0;
#X connect 20 0 7 0;
#X coords 0 -1 1 1 73 48 2 241 94;
#X restore 451 284 pd kick;
#X obj 153 438 metro;
#X floatatom 173 536 2 0 0 0 debug - -, f 2;
#X obj 173 561 send clock;
#X obj 133 88 t 0 120;
#X obj 90 509 *;
#X floatatom 90 536 7 0 0 0 debug - -, f 7;
#X obj 90 561 send swing;
#X obj 133 387 expr (60 / $f1) * (4000 / 15);
#X obj 192 438 select 0;
#X obj 170 465 bng 15 50 50 0 empty empty empty 17 7 0 10 -262144 -1
-1;
#X obj 461 424 key;
#X floatatom 542 473 5 0 0 0 - - -, f 5;
#X obj 461 449 route 32, f 14;
#X obj 461 475 t b;
#X obj 173 509 counter;
#X msg 212 486 15;
#X obj 212 462 loadbang;
#X obj 89 128 t b;
#X obj 450 203 snare;
#X connect 1 0 13 0;
#X connect 1 0 21 0;
#X connect 3 0 20 0;
#X connect 3 0 30 0;
#X connect 4 0 8 0;
#X connect 5 0 31 0;
#X connect 6 0 17 0;
#X connect 7 0 3 0;
#X connect 9 0 2 0;
#X connect 9 0 2 1;
#X connect 10 0 16 0;
#X connect 11 0 12 0;
#X connect 13 0 22 0;
#X connect 14 0 15 0;
#X connect 16 0 6 0;
#X connect 16 1 7 0;
#X connect 17 0 18 0;
#X connect 18 0 19 0;
#X connect 20 0 13 1;
#X connect 20 0 17 1;
#X connect 21 0 27 1;
#X connect 22 0 27 0;
#X connect 23 0 25 0;
#X connect 25 0 26 0;
#X connect 25 1 24 0;
#X connect 26 0 1 0;
#X connect 27 0 14 0;
#X connect 28 0 27 2;
#X connect 29 0 28 0;
#X connect 30 0 6 0;
