#N canvas 195 144 1183 754 10;
#X obj 339 152 cnv 15 642 397 empty empty Sequencer 10 10 0 14 -24967
-262144 0;
#X obj 311 152 tgl 28 0 play empty empty 0 -15 0 10 -66577 -262144
-1 1 1;
#X obj 52 691 output~;
#X obj 350 185 sequencer;
#X obj 350 283 sequencer;
#X obj 350 249 hihat;
#X obj 52 610 catch~ output;
#X obj 349 395 sequencer;
#N canvas 329 87 767 758 kick 0;
#X obj 34 12 inlet;
#X obj 168 309 osc~;
#X obj 168 285 vline~;
#X obj 153 362 throw~ output;
#X obj 34 282 vline~;
#X obj 153 334 *~;
#X obj 220 228 pipe 10;
#X obj 168 231 *;
#X obj 180 43 loadbang;
#X msg 34 246 1 1.5;
#X obj 78 222 del 10;
#X obj 34 46 t b b i b;
#X obj 180 121 hsl 128 15 50 120 0 0 empty empty Tone 5 5 0 10 -1 -262144
-262144 5743 1;
#X obj 180 141 hsl 128 15 50 500 0 0 empty empty Decay 5 5 0 10 -1
-262144 -262144 2222 1;
#X msg 168 254 \$1 0;
#X obj 220 206 / 2;
#X obj 220 250 pack f f;
#X obj 79 248 pack 0 f;
#X obj 122 222 + 100;
#X msg 180 76 80;
#X msg 216 75 150;
#X obj 68 97 scale 0 1 0.5 1;
#X connect 0 0 11 0;
#X connect 1 0 5 1;
#X connect 2 0 1 0;
#X connect 4 0 5 0;
#X connect 5 0 3 0;
#X connect 6 0 16 0;
#X connect 7 0 14 0;
#X connect 8 0 19 0;
#X connect 8 0 20 0;
#X connect 9 0 4 0;
#X connect 10 0 17 0;
#X connect 11 0 9 0;
#X connect 11 1 10 0;
#X connect 11 2 21 0;
#X connect 11 3 12 0;
#X connect 12 0 7 1;
#X connect 12 0 15 0;
#X connect 13 0 16 1;
#X connect 13 0 18 0;
#X connect 14 0 2 0;
#X connect 15 0 6 0;
#X connect 16 0 2 0;
#X connect 17 0 4 0;
#X connect 18 0 17 1;
#X connect 19 0 12 0;
#X connect 20 0 13 0;
#X connect 21 0 7 0;
#X coords 0 -1 1 1 133 35 2 180 121;
#X restore 349 454 pd kick;
#X obj 311 90 key;
#X obj 350 341 snare;
#X obj 212 418 record;
#X obj 52 650 clip~ -1 1;
#X obj 146 650 clip~ -1 1;
#X obj 311 115 route 32;
#N canvas 1081 439 450 323 sample 0;
#X obj 53 84 inlet;
#X obj 142 48 openpanel;
#X obj 142 28 bng 15 250 50 0 empty empty empty 17 7 0 10 -262144 -1
-1;
#X obj 142 92 soundfiler;
#N canvas 0 22 450 300 (subpatch) 0;
#X array sample 11448 float 4 black black;
#X coords 0 1 11447 -1 200 140 1;
#X restore 315 35 graph;
#X obj 126 335 throw~ output;
#X obj 126 305 tabread4~ sample;
#X obj 127 152 expr 44100 / $f1;
#X obj 127 187 float;
#X obj 86 192 bng 15 250 50 0 empty empty empty 17 7 0 10 -262144 -1
-1;
#X floatatom 127 219 5 0 0 0 - - -, f 5;
#X obj 127 248 phasor~;
#X obj 127 275 *~;
#X msg 142 70 read -resize \$1 sample;
#X connect 1 0 13 0;
#X connect 2 0 1 0;
#X connect 3 0 7 0;
#X connect 3 0 12 1;
#X connect 7 0 8 1;
#X connect 8 0 10 0;
#X connect 9 0 8 0;
#X connect 10 0 11 0;
#X connect 11 0 12 0;
#X connect 12 0 6 0;
#X connect 13 0 3 0;
#X restore 68 110 pd sample;
#N canvas 515 322 901 557 control 0;
#X obj 100 -62 cnv 15 103 185 empty empty Timing 5 5 0 12 -1 -262144
0;
#X floatatom 162 103 4 50 200 1 - - -, f 4;
#X obj 112 -28 vsl 30 120 0 0.5 0 0 empty empty Swing 0 -9 0 10 -66577
-262144 -262144 3000 1;
#X obj 160 -27 vsl 30 120 40 200 0 0 tempo empty Tempo 0 -9 0 10 -66577
-262144 -262144 5132 1;
#X obj 112 -120 loadbang;
#X obj 112 -94 t 0 120;
#X obj 285 13 expr (60 / $f1) * (4000 / 15);
#X obj 42 -99 t b;
#X obj 209 94 int;
#X obj 285 38 s step-duration;
#X obj 268 217 metro;
#X floatatom 268 274 2 0 0 0 debug - -, f 2;
#X obj 268 299 send clock;
#X obj 112 200 *;
#X floatatom 112 226 7 0 0 0 debug - -, f 7;
#X obj 112 251 send swing;
#X obj 325 207 select 0;
#X obj 268 167 r play;
#X obj 127 167 r step-duration;
#X obj 268 247 counter 15;
#X obj 162 132 s bpm;
#X obj 42 -122 r bpm;
#X obj 285 -12 r bpm;
#X obj 185 -193 key;
#X obj 185 -164 route 43 45;
#X obj 239 -134 r bpm;
#X obj 185 -99 +, f 1;
#X msg 185 -134 2, f 2;
#X msg 212 -134 -2, f 2;
#X text 182 -211 keyboard shortcuts for changing bpm;
#X text 378 207 reset counter when toggling play off;
#X text 282 -33 calculate duration of one step according to bpm;
#X text -127 -143 trigger swing change when bpm changes;
#X text -26 199 calculate swing amount;
#X text 234 93 round bpm;
#X connect 1 0 20 0;
#X connect 2 0 13 0;
#X connect 3 0 8 0;
#X connect 4 0 5 0;
#X connect 5 0 2 0;
#X connect 5 1 3 0;
#X connect 6 0 9 0;
#X connect 7 0 2 0;
#X connect 8 0 1 0;
#X connect 10 0 19 0;
#X connect 11 0 12 0;
#X connect 13 0 14 0;
#X connect 14 0 15 0;
#X connect 16 0 19 2;
#X connect 17 0 16 0;
#X connect 17 0 10 0;
#X connect 18 0 13 1;
#X connect 18 0 10 1;
#X connect 19 0 11 0;
#X connect 21 0 7 0;
#X connect 22 0 6 0;
#X connect 23 0 24 0;
#X connect 24 0 27 0;
#X connect 24 1 28 0;
#X connect 25 0 26 1;
#X connect 26 0 3 0;
#X connect 27 0 26 0;
#X connect 28 0 26 0;
#X coords 0 -1 1 1 107 189 2 98 -64;
#X restore 230 208 pd control;
#X connect 3 0 5 0;
#X connect 4 0 10 0;
#X connect 6 0 12 0;
#X connect 6 0 13 0;
#X connect 7 0 8 0;
#X connect 9 0 14 0;
#X connect 12 0 2 0;
#X connect 13 0 2 1;
#X connect 14 0 1 0;
