#N canvas 222 134 966 803 10;
#X obj 116 378 step;
#X obj 146 378 step;
#X obj 176 378 step;
#X obj 206 378 step;
#X obj 239 378 step;
#X obj 269 378 step;
#X obj 299 378 step;
#X obj 329 378 step;
#X obj 239 378 step;
#X obj 269 378 step;
#X obj 299 378 step;
#X obj 329 378 step;
#X obj 362 378 step;
#X obj 392 378 step;
#X obj 422 378 step;
#X obj 452 378 step;
#X obj 485 378 step;
#X obj 515 378 step;
#X obj 545 378 step;
#X obj 575 378 step;
#X obj 485 378 step;
#X obj 515 378 step;
#X obj 545 378 step;
#X obj 575 378 step;
#X floatatom 348 479 5 0 0 0 debug - -, f 5;
#X obj 348 505 outlet;
#X obj 115 311 loadbang;
#X obj 115 339 t 0;
#X obj 607 378 bng 15 250 50 0 empty empty All 17 7 0 10 -262144 -1
-1;
#X obj 607 394 bng 15 250 50 0 empty empty None 17 7 0 10 -262144 -1
-1;
#X msg 336 210 select;
#X msg 392 220 deselect;
#X obj 657 378 bng 15 250 50 0 empty empty Inc 17 7 0 10 -262144 -1
-1;
#X obj 657 394 bng 15 250 50 0 empty empty Dec 17 7 0 10 -262144 -1
-1;
#X msg 466 220 increment;
#X msg 539 220 decrement;
#X connect 0 0 24 0;
#X connect 0 1 1 0;
#X connect 1 0 24 0;
#X connect 1 1 2 0;
#X connect 2 0 24 0;
#X connect 2 1 3 0;
#X connect 3 0 24 0;
#X connect 3 1 8 0;
#X connect 4 0 24 0;
#X connect 5 0 24 0;
#X connect 6 0 24 0;
#X connect 7 0 24 0;
#X connect 8 0 24 0;
#X connect 8 1 9 0;
#X connect 9 0 24 0;
#X connect 9 1 10 0;
#X connect 10 0 24 0;
#X connect 10 1 11 0;
#X connect 11 0 24 0;
#X connect 11 1 12 0;
#X connect 12 0 24 0;
#X connect 12 1 13 0;
#X connect 13 0 24 0;
#X connect 13 1 14 0;
#X connect 14 0 24 0;
#X connect 14 1 15 0;
#X connect 15 0 24 0;
#X connect 15 1 20 0;
#X connect 16 0 24 0;
#X connect 17 0 24 0;
#X connect 18 0 24 0;
#X connect 19 0 24 0;
#X connect 20 0 24 0;
#X connect 20 1 21 0;
#X connect 21 0 24 0;
#X connect 21 1 22 0;
#X connect 22 0 24 0;
#X connect 22 1 23 0;
#X connect 23 0 24 0;
#X connect 24 0 25 0;
#X connect 26 0 27 0;
#X connect 27 0 0 0;
#X connect 28 0 30 0;
#X connect 29 0 31 0;
#X connect 30 0 21 1;
#X connect 30 0 0 1;
#X connect 30 0 10 1;
#X connect 30 0 23 1;
#X connect 30 0 22 1;
#X connect 30 0 20 1;
#X connect 30 0 19 1;
#X connect 30 0 18 1;
#X connect 30 0 17 1;
#X connect 30 0 16 1;
#X connect 30 0 15 1;
#X connect 30 0 14 1;
#X connect 30 0 13 1;
#X connect 30 0 12 1;
#X connect 30 0 11 1;
#X connect 30 0 9 1;
#X connect 30 0 8 1;
#X connect 30 0 7 1;
#X connect 30 0 6 1;
#X connect 30 0 5 1;
#X connect 30 0 4 1;
#X connect 30 0 3 1;
#X connect 30 0 2 1;
#X connect 30 0 1 1;
#X connect 31 0 21 1;
#X connect 31 0 0 1;
#X connect 31 0 10 1;
#X connect 31 0 23 1;
#X connect 31 0 22 1;
#X connect 31 0 20 1;
#X connect 31 0 19 1;
#X connect 31 0 18 1;
#X connect 31 0 17 1;
#X connect 31 0 16 1;
#X connect 31 0 15 1;
#X connect 31 0 14 1;
#X connect 31 0 13 1;
#X connect 31 0 12 1;
#X connect 31 0 11 1;
#X connect 31 0 9 1;
#X connect 31 0 8 1;
#X connect 31 0 7 1;
#X connect 31 0 6 1;
#X connect 31 0 5 1;
#X connect 31 0 4 1;
#X connect 31 0 3 1;
#X connect 31 0 2 1;
#X connect 31 0 1 1;
#X connect 32 0 34 0;
#X connect 33 0 35 0;
#X connect 34 0 21 1;
#X connect 34 0 0 1;
#X connect 34 0 23 1;
#X connect 34 0 22 1;
#X connect 34 0 20 1;
#X connect 34 0 19 1;
#X connect 34 0 18 1;
#X connect 34 0 17 1;
#X connect 34 0 16 1;
#X connect 34 0 15 1;
#X connect 34 0 14 1;
#X connect 34 0 13 1;
#X connect 34 0 12 1;
#X connect 34 0 11 1;
#X connect 34 0 10 1;
#X connect 34 0 9 1;
#X connect 34 0 8 1;
#X connect 34 0 7 1;
#X connect 34 0 6 1;
#X connect 34 0 5 1;
#X connect 34 0 4 1;
#X connect 34 0 3 1;
#X connect 34 0 2 1;
#X connect 34 0 1 1;
#X connect 35 0 21 1;
#X connect 35 0 0 1;
#X connect 35 0 23 1;
#X connect 35 0 22 1;
#X connect 35 0 20 1;
#X connect 35 0 19 1;
#X connect 35 0 18 1;
#X connect 35 0 17 1;
#X connect 35 0 16 1;
#X connect 35 0 15 1;
#X connect 35 0 14 1;
#X connect 35 0 13 1;
#X connect 35 0 12 1;
#X connect 35 0 11 1;
#X connect 35 0 10 1;
#X connect 35 0 9 1;
#X connect 35 0 8 1;
#X connect 35 0 7 1;
#X connect 35 0 6 1;
#X connect 35 0 5 1;
#X connect 35 0 4 1;
#X connect 35 0 3 1;
#X connect 35 0 2 1;
#X connect 35 0 1 1;
#X coords 0 -1 1 1 591 31 2 116 378;
