#N canvas 18 23 1062 763 10;
#X obj 41 62 cnv 15 854 607 empty empty empty 20 12 0 14 -153958 -66577
0;
#X obj 116 378 step;
#X obj 138 378 step;
#X obj 160 378 step;
#X obj 182 378 step;
#X obj 207 378 step;
#X obj 229 378 step;
#X obj 251 378 step;
#X obj 273 378 step;
#X obj 207 378 step;
#X obj 229 378 step;
#X obj 251 378 step;
#X obj 273 378 step;
#X obj 298 378 step;
#X obj 320 378 step;
#X obj 342 378 step;
#X obj 364 378 step;
#X obj 389 378 step;
#X obj 411 378 step;
#X obj 433 378 step;
#X obj 455 378 step;
#X obj 389 378 step;
#X obj 411 378 step;
#X obj 433 378 step;
#X obj 455 378 step;
#X floatatom 284 517 5 0 0 0 debug - -, f 5;
#X obj 284 543 outlet;
#X obj 115 311 loadbang;
#X obj 115 339 t 0;
#X obj 479 380 bng 23 250 50 0 empty empty All 25 8 0 12 -1 -262144
-262144;
#X obj 291 264 t a;
#X msg 356 202 decrement;
#X msg 291 202 increment;
#X obj 651 380 tgl 23 0 empty empty Record 25 8 0 12 -73729 -262144
-261299 0 1;
#X msg 149 202 selectall;
#X msg 214 202 deselectall;
#X obj 421 176 spigot;
#X obj 421 150 receive enable-step;
#X obj 479 405 bng 23 250 50 0 empty empty None 25 8 0 12 -1 -262144
-262144;
#X obj 548 380 bng 23 250 50 0 empty empty Increment 25 8 0 12 -1 -262144
-262144;
#X obj 548 405 bng 23 250 50 0 empty empty Decrement 25 8 0 12 -1 -262144
-262144;
#X msg 422 202 select \$1 \$2;
#X obj 651 405 bng 23 250 50 0 empty empty Randomize 25 8 0 12 -1 -262144
-262144;
#X msg 508 202 randomize;
#X connect 1 0 25 0;
#X connect 1 1 2 0;
#X connect 2 0 25 0;
#X connect 2 1 3 0;
#X connect 3 0 25 0;
#X connect 3 1 4 0;
#X connect 4 0 25 0;
#X connect 4 1 9 0;
#X connect 5 0 25 0;
#X connect 6 0 25 0;
#X connect 7 0 25 0;
#X connect 8 0 25 0;
#X connect 9 0 25 0;
#X connect 9 1 10 0;
#X connect 10 0 25 0;
#X connect 10 1 11 0;
#X connect 11 0 25 0;
#X connect 11 1 12 0;
#X connect 12 0 25 0;
#X connect 12 1 13 0;
#X connect 13 0 25 0;
#X connect 13 1 14 0;
#X connect 14 0 25 0;
#X connect 14 1 15 0;
#X connect 15 0 25 0;
#X connect 15 1 16 0;
#X connect 16 0 25 0;
#X connect 16 1 21 0;
#X connect 17 0 25 0;
#X connect 18 0 25 0;
#X connect 19 0 25 0;
#X connect 20 0 25 0;
#X connect 21 0 25 0;
#X connect 21 1 22 0;
#X connect 22 0 25 0;
#X connect 22 1 23 0;
#X connect 23 0 25 0;
#X connect 23 1 24 0;
#X connect 24 0 25 0;
#X connect 25 0 26 0;
#X connect 27 0 28 0;
#X connect 28 0 1 0;
#X connect 29 0 34 0;
#X connect 30 0 22 1;
#X connect 30 0 13 1;
#X connect 30 0 11 1;
#X connect 30 0 15 1;
#X connect 30 0 1 1;
#X connect 30 0 3 1;
#X connect 30 0 24 1;
#X connect 30 0 23 1;
#X connect 30 0 21 1;
#X connect 30 0 20 1;
#X connect 30 0 19 1;
#X connect 30 0 18 1;
#X connect 30 0 17 1;
#X connect 30 0 16 1;
#X connect 30 0 14 1;
#X connect 30 0 12 1;
#X connect 30 0 10 1;
#X connect 30 0 9 1;
#X connect 30 0 8 1;
#X connect 30 0 7 1;
#X connect 30 0 6 1;
#X connect 30 0 5 1;
#X connect 30 0 4 1;
#X connect 30 0 2 1;
#X connect 31 0 30 0;
#X connect 32 0 30 0;
#X connect 33 0 36 1;
#X connect 34 0 30 0;
#X connect 35 0 30 0;
#X connect 36 0 41 0;
#X connect 37 0 36 0;
#X connect 38 0 35 0;
#X connect 39 0 32 0;
#X connect 40 0 31 0;
#X connect 41 0 30 0;
#X connect 42 0 43 0;
#X connect 43 0 30 0;
#X coords 0 -1 1 1 633 53 2 116 378;
