#N canvas 406 178 945 661 10;
#X obj 485 368 *~;
#X obj 555 302 vline~;
#X msg 555 273 \$1 20;
#X obj 331 440 +~;
#X obj 330 567 delwrite~ delay1;
#X obj 346 378 noise~;
#X obj 331 345 vline~;
#X obj 331 414 *~;
#X obj 331 106 inlet;
#X obj 485 410 *~, f 4;
#X obj 331 538 bp~ 400 10;
#X obj 381 277 del 1;
#X msg 381 304 0 10;
#X obj 553 166 hsl 128 15 0.1 0.7 0 0 empty empty Length 5 5 0 10 -1
-262144 -262144 10450 1;
#X obj 553 147 hsl 128 15 0.5 8 0 0 empty empty Gain 5 5 0 10 -1 -262144
-262144 12700 1;
#X obj 416 147 hsl 128 15 300 12000 1 0 empty empty Tone 5 5 0 10 -1
-262144 -262144 1931 1;
#X obj 416 166 hsl 128 15 30 2 0 0 empty empty Spread 5 5 0 10 -1 -262144
-262144 12100 1;
#X obj 412 42 loadbang;
#X msg 415 93 2000;
#X msg 465 93 8;
#X msg 509 93 3;
#X obj 422 277 delread~ delay1 15;
#X msg 553 93 0.4;
#X obj 221 147 scale 0 1 0.8 1 0;
#X obj 221 214 *;
#X obj 555 244 *;
#X msg 331 292 1 3;
#X obj 485 452 outlet~;
#X connect 0 0 3 1;
#X connect 0 0 9 0;
#X connect 1 0 0 1;
#X connect 2 0 1 0;
#X connect 3 0 10 0;
#X connect 5 0 7 1;
#X connect 6 0 7 0;
#X connect 7 0 3 0;
#X connect 8 0 26 0;
#X connect 8 0 11 0;
#X connect 8 0 23 0;
#X connect 9 0 27 0;
#X connect 10 0 4 0;
#X connect 11 0 12 0;
#X connect 12 0 6 0;
#X connect 13 0 25 1;
#X connect 14 0 9 1;
#X connect 15 0 24 1;
#X connect 16 0 10 2;
#X connect 17 0 18 0;
#X connect 17 0 19 0;
#X connect 17 0 20 0;
#X connect 17 0 22 0;
#X connect 18 0 15 0;
#X connect 19 0 16 0;
#X connect 20 0 14 0;
#X connect 21 0 0 0;
#X connect 22 0 13 0;
#X connect 23 0 24 0;
#X connect 23 0 25 0;
#X connect 24 0 10 1;
#X connect 25 0 2 0;
#X connect 26 0 6 0;
#X coords 0 -1 1 1 270 35 2 416 146;
