#N canvas 406 178 945 661 10;
#X obj 485 368 *~;
#X obj 553 324 vline~;
#X msg 553 295 \$1 20;
#X obj 331 426 +~;
#X obj 330 567 delwrite~ delay1;
#X obj 346 375 noise~;
#X obj 331 353 vline~;
#X obj 331 400 *~;
#X obj 331 225 inlet;
#X obj 486 548 throw~ output;
#X obj 485 410 *~, f 4;
#X obj 331 538 bp~ 400 10;
#X obj 381 277 del 1;
#X msg 381 308 0 10;
#X obj 553 166 hsl 128 15 0.1 0.7 0 0 empty empty Decay 5 5 0 10 -1
-262144 -262144 12400 1;
#X obj 553 147 hsl 128 15 0.5 5 0 0 empty empty Level 5 5 0 10 -1 -262144
-262144 8656 1;
#X obj 416 147 hsl 128 15 300 12000 0 0 empty empty Tone 5 5 0 10 -1
-262144 -262144 1245 1;
#X obj 416 166 hsl 128 15 30 2 0 0 empty empty Spread 5 5 0 10 -1 -262144
-262144 12200 1;
#X obj 412 42 loadbang;
#X msg 415 93 2000;
#X msg 476 93 8;
#X msg 520 92 3;
#X obj 422 277 delread~ delay1 15;
#X msg 588 83 0.4;
#X obj 221 257 scale 0 1 0.8 1 0;
#X obj 291 500 *;
#X obj 555 244 *;
#X msg 331 292 1 3;
#X connect 0 0 3 1;
#X connect 0 0 10 0;
#X connect 1 0 0 1;
#X connect 2 0 1 0;
#X connect 3 0 11 0;
#X connect 5 0 7 1;
#X connect 6 0 7 0;
#X connect 7 0 3 0;
#X connect 8 0 27 0;
#X connect 8 0 12 0;
#X connect 8 0 24 0;
#X connect 10 0 9 0;
#X connect 11 0 4 0;
#X connect 12 0 13 0;
#X connect 13 0 6 0;
#X connect 14 0 26 1;
#X connect 15 0 10 1;
#X connect 16 0 25 1;
#X connect 17 0 11 2;
#X connect 18 0 19 0;
#X connect 18 0 20 0;
#X connect 18 0 21 0;
#X connect 19 0 16 0;
#X connect 20 0 17 0;
#X connect 21 0 15 0;
#X connect 22 0 0 0;
#X connect 23 0 14 0;
#X connect 24 0 25 0;
#X connect 24 0 26 0;
#X connect 25 0 11 1;
#X connect 26 0 2 0;
#X connect 27 0 6 0;
#X coords 0 -1 1 1 270 35 2 416 146;
