#N canvas 248 108 1079 759 10;
#X obj 108 275 vsl 20 25 0 1 0 0 empty empty empty 0 -9 0 10 -66577
-262144 -104026 720 1;
#X obj 108 254 tgl 20 0 empty empty empty 17 7 0 10 -1 -262144 -1 0
1;
#X obj 15 451 outlet hit;
#X obj 102 117 outlet thru;
#X obj 101 24 inlet n;
#X obj 102 90 + 1;
#X obj 15 266 &;
#X msg 15 242 1;
#X obj 15 73 ==;
#X obj 15 97 select 1;
#X obj 101 47 int;
#X obj 15 290 select 1;
#X obj 23 46 bng 15 50 50 0 empty empty empty 17 7 0 10 -262144 -1
-1;
#X obj 23 313 bng 15 250 50 0 empty empty empty 17 7 0 10 -262144 -1
-1;
#X obj 120 267 bng 8 75 50 0 empty empty empty 17 7 0 10 -1 -262144
-1;
#X floatatom 15 339 5 0 0 0 - - -, f 5;
#X obj 15 419 pipe;
#X obj 36 395 expr if($i2 % 2 == 1 \, $f1 \, 0);
#X obj 15 24 receive clock;
#X obj 36 371 receive swing;
#X floatatom 162 76 5 0 0 0 - - -, f 5;
#X obj 217 25 inlet message;
#X msg 255 88 1;
#X msg 315 87 0;
#X obj 79 202 loadbang;
#X obj 150 282 +;
#X msg 390 88 0.1;
#X msg 449 88 -0.1;
#X obj 217 59 route selectall deselectall increment decrement select
;
#X msg 79 226 1;
#X obj 508 87 unpack f;
#X obj 285 173 ==;
#X obj 508 110 int;
#X obj 285 196 select 1;
#X msg 285 217 1;
#X connect 0 0 15 0;
#X connect 0 0 25 1;
#X connect 1 0 6 1;
#X connect 4 0 10 0;
#X connect 5 0 3 0;
#X connect 6 0 11 0;
#X connect 7 0 6 0;
#X connect 8 0 9 0;
#X connect 9 0 7 0;
#X connect 9 0 14 0;
#X connect 10 0 5 0;
#X connect 10 0 8 1;
#X connect 10 0 17 1;
#X connect 10 0 20 0;
#X connect 10 0 31 1;
#X connect 11 0 13 0;
#X connect 11 0 15 0;
#X connect 15 0 16 0;
#X connect 16 0 2 0;
#X connect 17 0 16 1;
#X connect 18 0 8 0;
#X connect 18 0 12 0;
#X connect 19 0 17 0;
#X connect 21 0 28 0;
#X connect 22 0 1 0;
#X connect 23 0 1 0;
#X connect 24 0 29 0;
#X connect 25 0 0 0;
#X connect 26 0 25 0;
#X connect 27 0 25 0;
#X connect 28 0 22 0;
#X connect 28 1 23 0;
#X connect 28 2 26 0;
#X connect 28 3 27 0;
#X connect 28 4 30 0;
#X connect 29 0 0 0;
#X connect 30 0 32 0;
#X connect 31 0 33 0;
#X connect 32 0 31 0;
#X connect 33 0 34 0;
#X connect 34 0 1 0;
#X coords 0 -1 1 1 22 53 2 107 253;
