#N canvas 385 183 1079 759 10;
#X obj 108 315 vsl 20 25 0 1 0 0 empty empty empty 0 -9 0 10 -66577
-262144 -104026 2400 1;
#X obj 108 294 tgl 20 0 empty empty empty 17 7 0 10 -1 -262144 -1 1
1;
#X obj 15 501 outlet hit;
#X obj 420 344 outlet thru;
#X obj 134 24 inlet n;
#X obj 420 319 + 1;
#X obj 15 306 &;
#X msg 15 282 1;
#X obj 15 144 ==;
#X obj 15 168 select 1;
#X obj 134 47 int;
#X obj 15 330 select 1;
#X obj 23 46 bng 15 50 50 0 empty empty empty 17 7 0 10 -262144 -1
-1;
#X obj 23 353 bng 15 250 50 0 empty empty empty 17 7 0 10 -262144 -1
-1;
#X obj 120 307 bng 8 75 50 0 empty empty empty 17 7 0 10 -1 -262144
-1;
#X floatatom 15 379 5 0 0 1 debug - -, f 5;
#X obj 15 469 pipe;
#X obj 36 445 expr if($i2 % 2 == 1 \, $f1 \, 0);
#X obj 15 24 receive clock;
#X obj 260 25 inlet message;
#X msg 298 75 1;
#X msg 361 74 0;
#X obj 52 232 loadbang;
#X obj 150 322 +;
#X obj 260 49 route selectall deselectall increment decrement select
;
#X msg 52 256 1;
#X obj 553 74 unpack f;
#X obj 553 126 ==;
#X obj 553 100 int;
#X obj 553 147 select 1;
#X msg 553 168 1;
#X msg 431 74 0.05;
#X msg 494 74 -0.05;
#X obj 553 189 s \$0-toggle;
#X obj 108 262 r \$0-toggle;
#X obj 134 70 s \$0-position;
#X obj 581 100 r \$0-position;
#X obj 420 294 r \$0-position;
#X obj 207 422 r \$0-position;
#X obj 36 422 r swing;
#X text 34 405 if at a "swing position" \, delay output by swing time
;
#X text 417 273 add one to the current position and send to next step
;
#X obj 30 112 r \$0-position;
#X obj 431 103 s \$0-change-value;
#X obj 150 296 r \$0-change-value;
#X text 30 186 if step position is clock position;
#X text 38 352 if at current position and toggle is checked;
#X connect 0 0 15 0;
#X connect 0 0 23 1;
#X connect 1 0 6 1;
#X connect 4 0 10 0;
#X connect 5 0 3 0;
#X connect 6 0 11 0;
#X connect 7 0 6 0;
#X connect 8 0 9 0;
#X connect 9 0 7 0;
#X connect 9 0 14 0;
#X connect 10 0 35 0;
#X connect 11 0 13 0;
#X connect 11 0 15 0;
#X connect 15 0 16 0;
#X connect 16 0 2 0;
#X connect 17 0 16 1;
#X connect 18 0 8 0;
#X connect 18 0 12 0;
#X connect 19 0 24 0;
#X connect 20 0 33 0;
#X connect 21 0 33 0;
#X connect 22 0 25 0;
#X connect 23 0 0 0;
#X connect 24 0 20 0;
#X connect 24 1 21 0;
#X connect 24 2 31 0;
#X connect 24 3 32 0;
#X connect 24 4 26 0;
#X connect 25 0 0 0;
#X connect 26 0 28 0;
#X connect 27 0 29 0;
#X connect 28 0 27 0;
#X connect 29 0 30 0;
#X connect 30 0 33 0;
#X connect 31 0 43 0;
#X connect 32 0 43 0;
#X connect 34 0 1 0;
#X connect 36 0 27 1;
#X connect 37 0 5 0;
#X connect 38 0 17 1;
#X connect 39 0 17 0;
#X connect 42 0 8 1;
#X connect 44 0 23 0;
#X coords 0 -1 1 1 22 53 2 107 293;
