#N canvas 378 224 744 707 10;
#X obj 108 236 vsl 15 25 0 1 0 0 empty empty empty 0 -9 0 10 -261049
-1 -104026 960 1;
#X obj 92 236 tgl 15 0 empty empty empty 17 7 0 10 -1 -261049 -1 0
1;
#X obj 15 361 outlet hit;
#X obj 102 117 outlet thru;
#X obj 101 24 inlet n;
#X obj 102 90 + 1;
#X obj 15 226 &;
#X msg 15 202 1;
#X obj 15 73 ==;
#X obj 15 97 select 1;
#X obj 101 47 int;
#X obj 15 250 select 1;
#X obj 23 46 bng 15 50 50 0 empty empty empty 17 7 0 10 -262144 -1
-1;
#X obj 23 273 bng 15 250 50 0 empty empty empty 17 7 0 10 -262144 -1
-1;
#X obj 93 252 bng 14 75 50 0 empty empty empty 17 7 0 10 -1 -261049
-1;
#X floatatom 15 299 5 0 0 0 - - -, f 5;
#X obj 15 329 pipe;
#X obj 102 302 expr if($i2 % 2 == 1 \, $f1 \, 0);
#X obj 15 24 receive clock;
#X obj 102 278 receive swing;
#X floatatom 162 76 5 0 0 0 - - -, f 5;
#X obj 217 25 inlet message;
#X msg 217 88 1;
#X msg 278 87 0;
#X obj 79 162 loadbang;
#X msg 79 186 0.75;
#X obj 217 59 route select deselect increment decrement;
#X obj 150 242 +;
#X msg 338 88 0.1;
#X msg 399 88 -0.1;
#X connect 0 0 15 0;
#X connect 0 0 27 1;
#X connect 1 0 6 1;
#X connect 4 0 10 0;
#X connect 5 0 3 0;
#X connect 6 0 11 0;
#X connect 7 0 6 0;
#X connect 8 0 9 0;
#X connect 9 0 7 0;
#X connect 9 0 14 0;
#X connect 10 0 5 0;
#X connect 10 0 8 1;
#X connect 10 0 17 1;
#X connect 10 0 20 0;
#X connect 11 0 13 0;
#X connect 11 0 15 0;
#X connect 15 0 16 0;
#X connect 16 0 2 0;
#X connect 17 0 16 1;
#X connect 18 0 8 0;
#X connect 18 0 12 0;
#X connect 19 0 17 0;
#X connect 21 0 26 0;
#X connect 22 0 1 0;
#X connect 23 0 1 0;
#X connect 24 0 25 0;
#X connect 25 0 0 0;
#X connect 26 0 22 0;
#X connect 26 1 23 0;
#X connect 26 2 28 0;
#X connect 26 3 29 0;
#X connect 27 0 0 0;
#X connect 28 0 27 0;
#X connect 29 0 27 0;
#X coords 0 -1 1 1 31 31 2 92 235;
