#N canvas 506 127 1079 759 10;
#X obj 108 315 vsl 20 25 0 1 0 0 empty empty empty 0 -9 0 10 -66577
-262144 -104026 2280 1;
#X obj 108 294 tgl 20 0 empty empty empty 17 7 0 10 -1 -262144 -1 1
1;
#X obj 15 411 outlet hit;
#X obj 386 327 outlet thru;
#X obj 134 24 inlet n;
#X obj 386 302 + 1;
#X obj 15 306 &;
#X msg 15 282 1;
#X obj 15 144 ==;
#X obj 15 168 select 1;
#X obj 134 47 int;
#X obj 15 330 select 1;
#X obj 23 46 bng 15 50 50 0 empty empty empty 17 7 0 10 -262144 -1
-1;
#X obj 23 353 bng 15 250 50 0 empty empty empty 17 7 0 10 -262144 -1
-1;
#X obj 120 307 bng 8 75 50 0 empty empty empty 17 7 0 10 -1 -262144
-1;
#X floatatom 15 379 5 0 0 1 debug - -, f 5;
#X obj 15 24 receive clock;
#X obj 260 25 inlet message;
#X msg 298 75 1;
#X msg 361 74 0;
#X obj 52 232 loadbang;
#X obj 150 322 +;
#X msg 52 256 1;
#X obj 553 124 ==;
#X obj 553 147 select 1;
#X msg 553 199 1;
#X msg 431 74 0.05;
#X msg 494 74 -0.05;
#X obj 553 227 s \$0-toggle;
#X obj 108 262 r \$0-toggle;
#X obj 134 70 s \$0-position;
#X obj 581 100 r \$0-position;
#X obj 386 277 r \$0-position;
#X text 383 256 add one to the current position and send to next step
;
#X obj 30 112 r \$0-position;
#X obj 431 103 s \$0-change-value;
#X obj 150 296 r \$0-change-value;
#X text 30 186 if step position is clock position;
#X text 38 352 if at current position and toggle is checked;
#X obj 634 201 float;
#X obj 634 227 s \$0-set-value;
#X obj 124 223 r \$0-set-value;
#X obj 553 74 unpack f f;
#X obj 553 100 int;
#X obj 260 49 route selectall deselectall increment decrement select
randomize, f 65;
#X obj 675 100 random 1000;
#X obj 675 126 / 1000;
#X obj 733 227 s \$0-set-value;
#X connect 0 0 15 0;
#X connect 0 0 21 1;
#X connect 1 0 6 1;
#X connect 4 0 10 0;
#X connect 5 0 3 0;
#X connect 6 0 11 0;
#X connect 7 0 6 0;
#X connect 8 0 9 0;
#X connect 9 0 7 0;
#X connect 9 0 14 0;
#X connect 10 0 30 0;
#X connect 11 0 13 0;
#X connect 11 0 15 0;
#X connect 15 0 2 0;
#X connect 16 0 8 0;
#X connect 16 0 12 0;
#X connect 17 0 44 0;
#X connect 18 0 28 0;
#X connect 19 0 28 0;
#X connect 20 0 22 0;
#X connect 21 0 0 0;
#X connect 22 0 0 0;
#X connect 23 0 24 0;
#X connect 24 0 25 0;
#X connect 24 0 39 0;
#X connect 25 0 28 0;
#X connect 26 0 35 0;
#X connect 27 0 35 0;
#X connect 29 0 1 0;
#X connect 31 0 23 1;
#X connect 32 0 5 0;
#X connect 34 0 8 1;
#X connect 36 0 21 0;
#X connect 39 0 40 0;
#X connect 41 0 0 0;
#X connect 42 0 43 0;
#X connect 42 1 39 1;
#X connect 43 0 23 0;
#X connect 44 0 18 0;
#X connect 44 1 19 0;
#X connect 44 2 26 0;
#X connect 44 3 27 0;
#X connect 44 4 42 0;
#X connect 44 5 45 0;
#X connect 45 0 46 0;
#X connect 46 0 47 0;
#X coords 0 -1 1 1 22 53 2 107 293;
