#N canvas 507 287 686 555 10;
#X obj 61 38 inlet~;
#X obj 117 101 vsl 30 40 0 1 0 0 empty empty empty 0 -9 0 10 -62416
-262144 -1 3900 1;
#X obj 61 219 *~;
#X msg 117 65 1;
#X obj 117 161 tgl 30 0 empty empty Mute 0 -10 0 10 -62416 -262144
-262144 0 1;
#X obj 61 279 *~;
#X obj 76 254 expr if($i1 == 1 \, 0 \, 1);
#X obj 117 38 loadbang;
#X obj 61 307 throw~ output;
#X msg 166 69 0;
#X connect 0 0 2 0;
#X connect 1 0 2 1;
#X connect 2 0 5 0;
#X connect 3 0 1 0;
#X connect 4 0 6 0;
#X connect 5 0 8 0;
#X connect 6 0 5 1;
#X connect 7 0 3 0;
#X connect 7 0 9 0;
#X connect 9 0 4 0;
#X coords 0 -1 1 1 32 92 2 116 100;
